<?xml version="1.0" encoding="utf-8"?>
<!-- Generator: Adobe Illustrator 22.1.0, SVG Export Plug-In . SVG Version: 6.00 Build 0)  -->
<svg version="1.1" xmlns="http://www.w3.org/2000/svg" xmlns:xlink="http://www.w3.org/1999/xlink" x="0px" y="0px"
	 viewBox="0 0 120 163" style="enable-background:new 0 0 120 163;" xml:space="preserve">
<style type="text/css">
	.st0{fill:#BFED8E;}
	.st1{fill:#6B4F34;}
	.st2{fill:#84623A;}
	.st3{fill:#9E764D;}
	.st4{fill:#020202;}
	.st5{fill:#ED8EEB;}
</style>
<g id="Layer_4">
	<rect x="-0.2" y="-0.1" transform="matrix(-1 -4.490598e-11 4.490598e-11 -1 120 163)" class="st0" width="120.3" height="163.2"/>
	<path class="st1" d="M79.9,68.8c0,0,8.8,14.8,12.1,13.9c3.4-0.9,5-7.8,7.9-6c2.9,1.8,7.9,5-1.3,11.7s-15.2,3.3-25-14.1
		C73.6,74.3,74.9,67.2,79.9,68.8z"/>
	<path class="st1" d="M63.1,131.6l3.1,0.7c4.2,1,8.4-1.6,9.4-5.8l1.5-6.6c1-4.2-1.6-8.4-5.8-9.4l-3.1-0.7c-4.2-1-8.4,1.6-9.4,5.8
		l-1.5,6.6C56.2,126.4,58.9,130.6,63.1,131.6z"/>
	<path class="st2" d="M47.7,133.6h4.2c4.2,0,7.7-3.5,7.7-7.7v-8c0-4.2-3.5-7.7-7.7-7.7h-4.2c-4.2,0-7.7,3.5-7.7,7.7v8
		C40,130.1,43.4,133.6,47.7,133.6z"/>
	
		<ellipse transform="matrix(2.199976e-02 -0.9998 0.9998 2.199976e-02 16.7226 86.1331)" class="st2" cx="52.4" cy="34.5" rx="5.4" ry="4.2"/>
	
		<ellipse transform="matrix(9.410630e-02 -0.9956 0.9956 9.410630e-02 34.0643 107.4769)" class="st2" cx="76.1" cy="35" rx="5.4" ry="4.2"/>
	
		<ellipse transform="matrix(8.285651e-02 -0.9966 0.9966 8.285651e-02 34.8853 107.9469)" class="st3" cx="76.1" cy="35" rx="3.8" ry="3"/>
	
		<ellipse transform="matrix(8.285651e-02 -0.9966 0.9966 8.285651e-02 13.6449 83.8649)" class="st3" cx="52.4" cy="34.5" rx="3.8" ry="3"/>
	<path class="st2" d="M85,40.2c-1.4-2.5-42.4-5.6-46.1,0c-3.7,5.6-7.1,75.7-1.5,77.9c9.7,10.6,31.3,9.6,40.1,2.1
		C86.2,112.7,86.4,42.6,85,40.2z"/>
	
		<ellipse transform="matrix(7.579082e-02 -0.9971 0.9971 7.579082e-02 -31.0588 149.5534)" class="st3" cx="65.1" cy="91.5" rx="22" ry="11"/>
	<ellipse class="st2" cx="34.4" cy="109.6" rx="3.3" ry="3.7"/>
	<path class="st1" d="M44.1,73.2c0,0-8.6,14.9-6.2,17.4c2.4,2.5,9.2,0.5,9.1,3.9c-0.1,3.4-0.5,9.4-10.8,4.5
		c-10.3-4.8-10.4-11.7,0-28.7C36.1,70.3,43,68,44.1,73.2z"/>
	<path d="M73.8,56.9h-12c0,0,1,7,6,7C72.8,63.9,73.8,56.9,73.8,56.9z"/>
	<ellipse class="st4" cx="62.9" cy="50.9" rx="1.1" ry="2.5"/>
	<ellipse class="st4" cx="71.5" cy="50.9" rx="1.1" ry="2.5"/>
	<circle class="st5" cx="52.9" cy="64.2" r="3.1"/>
	<circle class="st5" cx="79.2" cy="64.2" r="3.1"/>
	<path class="st1" d="M71.6,127.8c0,0,9,1.1,9,4.9s-19.2,1.5-18.2-2.7C63.4,125.8,71.6,127.8,71.6,127.8z"/>
	<path class="st2" d="M54.3,130.9c0,0,8.4,1.3,8,4.4c-0.3,3-18.1,0.2-16.9-3.1C46.7,128.9,54.3,130.9,54.3,130.9z"/>
	<path d="M68.5,63.4c0,0,0.2,2.8,2.7,1.7v0.6c0,0-2.6,0.5-3.5-2.3H68.5z"/>
	<path d="M67.4,63.4c0,0-0.2,2.8-2.7,1.7v0.6c0,0,2.6,0.5,3.5-2.3H67.4z"/>
	
		<rect x="139.8" y="-0.1" transform="matrix(-1 -4.490598e-11 4.490598e-11 -1 400 163)" class="st0" width="120.3" height="163.2"/>
	<path class="st1" d="M219.1,69.7c0,0,11.2,13.1,14.3,11.6c3.2-1.4,3.6-8.5,6.7-7.3c3.2,1.3,8.7,3.6,0.7,11.7
		c-8,8.1-14.4,5.9-27.1-9.6C213.8,76.2,213.9,69,219.1,69.7z"/>
	<path class="st1" d="M206.9,130.9l3.1-0.4c4.3-0.5,7.3-4.4,6.8-8.7l-0.8-6.7c-0.5-4.3-4.4-7.3-8.7-6.8l-3.1,0.4
		c-4.3,0.5-7.3,4.4-6.8,8.7l0.8,6.7C198.7,128.4,202.7,131.4,206.9,130.9z"/>
	<path class="st2" d="M183.3,130.4l3.9,1.6c3.9,1.6,8.4-0.2,10.1-4.1l3.1-7.3c1.6-3.9-0.2-8.4-4.1-10.1l-3.9-1.6
		c-3.9-1.6-8.4,0.2-10.1,4.1l-3.1,7.3C177.6,124.2,179.4,128.8,183.3,130.4z"/>
	
		<ellipse transform="matrix(2.199976e-02 -0.9998 0.9998 2.199976e-02 155.1152 224.6587)" class="st2" cx="192.4" cy="33" rx="5.4" ry="4.2"/>
	
		<ellipse transform="matrix(9.410630e-02 -0.9956 0.9956 9.410630e-02 162.3559 245.5213)" class="st2" cx="216.1" cy="33.5" rx="5.4" ry="4.2"/>
	
		<ellipse transform="matrix(8.285651e-02 -0.9966 0.9966 8.285651e-02 164.7533 246.1146)" class="st3" cx="216.1" cy="33.5" rx="3.8" ry="3"/>
	
		<ellipse transform="matrix(8.285651e-02 -0.9966 0.9966 8.285651e-02 143.5129 222.0326)" class="st3" cx="192.4" cy="33" rx="3.8" ry="3"/>
	<path class="st2" d="M225,38.7c-1.4-2.5-42.4-5.6-46.1,0c-3.7,5.6-7.1,75.7-1.5,77.9c9.7,10.6,31.3,9.6,40.1,2.1
		C226.2,111.2,226.4,41.2,225,38.7z"/>
	
		<ellipse transform="matrix(7.579082e-02 -0.9971 0.9971 7.579082e-02 99.7993 287.7894)" class="st3" cx="205.1" cy="90.1" rx="22" ry="11"/>
	<ellipse class="st2" cx="174.4" cy="108.1" rx="3.3" ry="3.7"/>
	<path class="st1" d="M184.2,73.7c0,0-12.1,12.2-10.4,15.2c1.7,3,8.8,2.8,7.8,6.1c-1,3.3-2.9,9-11.6,1.6c-8.8-7.3-7-13.9,7.3-27.8
		C177.2,68.9,184.5,68.5,184.2,73.7z"/>
	<path d="M213.8,55.4h-12c0,0,1,7,6,7S213.8,55.4,213.8,55.4z"/>
	<ellipse class="st4" cx="202.9" cy="49.4" rx="1.1" ry="2.5"/>
	<ellipse class="st4" cx="211.5" cy="49.4" rx="1.1" ry="2.5"/>
	<circle class="st5" cx="192.9" cy="62.7" r="3.1"/>
	<circle class="st5" cx="219.2" cy="62.7" r="3.1"/>
	<path class="st1" d="M212.6,126.9c0,0,9.1,0.6,9.2,4.5c0.2,3.8-19.1,2.5-18.4-1.8C204.3,125.3,212.6,126.9,212.6,126.9z"/>
	<path class="st2" d="M193.5,129.6c0,0,7.8,3.4,6.7,6.2c-1,2.9-17.6-4.3-15.6-7.2S193.5,129.6,193.5,129.6z"/>
	<path d="M208.5,61.9c0,0,0.2,2.8,2.7,1.7v0.6c0,0-2.6,0.5-3.5-2.3H208.5z"/>
	<path d="M207.4,61.9c0,0-0.2,2.8-2.7,1.7v0.6c0,0,2.6,0.5,3.5-2.3H207.4z"/>
</g>
<g id="Layer_2">
</g>
</svg>
